<svg id="visual" viewBox="0 0 960 540" width="960" height="540" xmlns="http://www.w3.org/2000/svg" xmlns:xlink="http://www.w3.org/1999/xlink" version="1.1"><rect x="0" y="0" width="960" height="540" fill="#001220"></rect><path d="M0 395L22.8 383.7C45.7 372.3 91.3 349.7 137 340C182.7 330.3 228.3 333.7 274 342.2C319.7 350.7 365.3 364.3 411.2 362.5C457 360.7 503 343.3 548.8 342.5C594.7 341.7 640.3 357.3 686 368.3C731.7 379.3 777.3 385.7 823 379.3C868.7 373 914.3 354 937.2 344.5L960 335L960 541L937.2 541C914.3 541 868.7 541 823 541C777.3 541 731.7 541 686 541C640.3 541 594.7 541 548.8 541C503 541 457 541 411.2 541C365.3 541 319.7 541 274 541C228.3 541 182.7 541 137 541C91.3 541 45.7 541 22.8 541L0 541Z" fill="#d81b60"></path><path d="M0 406L22.8 398.5C45.7 391 91.3 376 137 378.2C182.7 380.3 228.3 399.7 274 401.8C319.7 404 365.3 389 411.2 377.2C457 365.3 503 356.7 548.8 355.7C594.7 354.7 640.3 361.3 686 371.3C731.7 381.3 777.3 394.7 823 399.3C868.7 404 914.3 400 937.2 398L960 396L960 541L937.2 541C914.3 541 868.7 541 823 541C777.3 541 731.7 541 686 541C640.3 541 594.7 541 548.8 541C503 541 457 541 411.2 541C365.3 541 319.7 541 274 541C228.3 541 182.7 541 137 541C91.3 541 45.7 541 22.8 541L0 541Z" fill="#ea4d64"></path><path d="M0 421L22.8 421.5C45.7 422 91.3 423 137 417.2C182.7 411.3 228.3 398.7 274 398.3C319.7 398 365.3 410 411.2 416C457 422 503 422 548.8 420.2C594.7 418.3 640.3 414.7 686 414.8C731.7 415 777.3 419 823 417.8C868.7 416.7 914.3 410.3 937.2 407.2L960 404L960 541L937.2 541C914.3 541 868.7 541 823 541C777.3 541 731.7 541 686 541C640.3 541 594.7 541 548.8 541C503 541 457 541 411.2 541C365.3 541 319.7 541 274 541C228.3 541 182.7 541 137 541C91.3 541 45.7 541 22.8 541L0 541Z" fill="#fa726d"></path><path d="M0 443L22.8 446.3C45.7 449.7 91.3 456.3 137 454.7C182.7 453 228.3 443 274 443.5C319.7 444 365.3 455 411.2 455C457 455 503 444 548.8 440.8C594.7 437.7 640.3 442.3 686 439.2C731.7 436 777.3 425 823 424.5C868.7 424 914.3 434 937.2 439L960 444L960 541L937.2 541C914.3 541 868.7 541 823 541C777.3 541 731.7 541 686 541C640.3 541 594.7 541 548.8 541C503 541 457 541 411.2 541C365.3 541 319.7 541 274 541C228.3 541 182.7 541 137 541C91.3 541 45.7 541 22.8 541L0 541Z" fill="#fa726d"></path><path d="M0 451L22.8 453.3C45.7 455.7 91.3 460.3 137 461C182.7 461.7 228.3 458.3 274 459C319.7 459.7 365.3 464.3 411.2 465.3C457 466.3 503 463.7 548.8 465.8C594.7 468 640.3 475 686 477.3C731.7 479.7 777.3 477.3 823 474.5C868.7 471.7 914.3 468.3 937.2 466.7L960 465L960 541L937.2 541C914.3 541 868.7 541 823 541C777.3 541 731.7 541 686 541C640.3 541 594.7 541 548.8 541C503 541 457 541 411.2 541C365.3 541 319.7 541 274 541C228.3 541 182.7 541 137 541C91.3 541 45.7 541 22.8 541L0 541Z" fill="#ea4d64"></path><path d="M0 486L22.8 487.7C45.7 489.3 91.3 492.7 137 493.5C182.7 494.3 228.3 492.7 274 490.7C319.7 488.7 365.3 486.3 411.2 488.5C457 490.7 503 497.3 548.8 498.8C594.7 500.3 640.3 496.7 686 496.7C731.7 496.7 777.3 500.3 823 502C868.7 503.7 914.3 503.3 937.2 503.2L960 503L960 541L937.2 541C914.3 541 868.7 541 823 541C777.3 541 731.7 541 686 541C640.3 541 594.7 541 548.8 541C503 541 457 541 411.2 541C365.3 541 319.7 541 274 541C228.3 541 182.7 541 137 541C91.3 541 45.7 541 22.8 541L0 541Z" fill="#d81b60"></path></svg>