<svg id="visual" viewBox="0 0 540 960" width="540" height="960" xmlns="http://www.w3.org/2000/svg" xmlns:xlink="http://www.w3.org/1999/xlink" version="1.1"><rect x="0" y="0" width="540" height="960" fill="#001220"></rect><path d="M0 700L12.8 703.8C25.7 707.7 51.3 715.3 77 716.7C102.7 718 128.3 713 154 707.8C179.7 702.7 205.3 697.3 231.2 689.8C257 682.3 283 672.7 308.8 669.2C334.7 665.7 360.3 668.3 386 671C411.7 673.7 437.3 676.3 463 680.5C488.7 684.7 514.3 690.3 527.2 693.2L540 696L540 961L527.2 961C514.3 961 488.7 961 463 961C437.3 961 411.7 961 386 961C360.3 961 334.7 961 308.8 961C283 961 257 961 231.2 961C205.3 961 179.7 961 154 961C128.3 961 102.7 961 77 961C51.3 961 25.7 961 12.8 961L0 961Z" fill="#d81b60"></path><path d="M0 784L12.8 784C25.7 784 51.3 784 77 780.7C102.7 777.3 128.3 770.7 154 769C179.7 767.3 205.3 770.7 231.2 771.5C257 772.3 283 770.7 308.8 763.2C334.7 755.7 360.3 742.3 386 740.5C411.7 738.7 437.3 748.3 463 752.2C488.7 756 514.3 754 527.2 753L540 752L540 961L527.2 961C514.3 961 488.7 961 463 961C437.3 961 411.7 961 386 961C360.3 961 334.7 961 308.8 961C283 961 257 961 231.2 961C205.3 961 179.7 961 154 961C128.3 961 102.7 961 77 961C51.3 961 25.7 961 12.8 961L0 961Z" fill="#ee5766"></path><path d="M0 791L12.8 791.5C25.7 792 51.3 793 77 791.3C102.7 789.7 128.3 785.3 154 781.7C179.7 778 205.3 775 231.2 775.5C257 776 283 780 308.8 787C334.7 794 360.3 804 386 803C411.7 802 437.3 790 463 782.3C488.7 774.7 514.3 771.3 527.2 769.7L540 768L540 961L527.2 961C514.3 961 488.7 961 463 961C437.3 961 411.7 961 386 961C360.3 961 334.7 961 308.8 961C283 961 257 961 231.2 961C205.3 961 179.7 961 154 961C128.3 961 102.7 961 77 961C51.3 961 25.7 961 12.8 961L0 961Z" fill="#fa726d"></path><path d="M0 823L12.8 821.2C25.7 819.3 51.3 815.7 77 818C102.7 820.3 128.3 828.7 154 836C179.7 843.3 205.3 849.7 231.2 852.8C257 856 283 856 308.8 855.3C334.7 854.7 360.3 853.3 386 847.3C411.7 841.3 437.3 830.7 463 825.3C488.7 820 514.3 820 527.2 820L540 820L540 961L527.2 961C514.3 961 488.7 961 463 961C437.3 961 411.7 961 386 961C360.3 961 334.7 961 308.8 961C283 961 257 961 231.2 961C205.3 961 179.7 961 154 961C128.3 961 102.7 961 77 961C51.3 961 25.7 961 12.8 961L0 961Z" fill="#ee5766"></path><path d="M0 894L12.8 893.7C25.7 893.3 51.3 892.7 77 890C102.7 887.3 128.3 882.7 154 880.7C179.7 878.7 205.3 879.3 231.2 879.7C257 880 283 880 308.8 881C334.7 882 360.3 884 386 881.3C411.7 878.7 437.3 871.3 463 869C488.7 866.7 514.3 869.3 527.2 870.7L540 872L540 961L527.2 961C514.3 961 488.7 961 463 961C437.3 961 411.7 961 386 961C360.3 961 334.7 961 308.8 961C283 961 257 961 231.2 961C205.3 961 179.7 961 154 961C128.3 961 102.7 961 77 961C51.3 961 25.7 961 12.8 961L0 961Z" fill="#d81b60"></path></svg>